<mxfile host="app.diagrams.net" modified="2023-05-20T11:22:09.073Z" agent="Mozilla/5.0 (Macintosh; Intel Mac OS X 10.15; rv:109.0) Gecko/20100101 Firefox/113.0" etag="-3679MnYQzEhEhpnn0MA" version="21.3.2" type="device">
  <diagram name="Page-1" id="AevBm2QE-0TxqZHlD_0h">
    <mxGraphModel dx="1306" dy="767" grid="1" gridSize="10" guides="1" tooltips="1" connect="1" arrows="1" fold="1" page="1" pageScale="1" pageWidth="827" pageHeight="1169" math="0" shadow="0">
      <root>
        <mxCell id="0" />
        <mxCell id="1" parent="0" />
        <mxCell id="JNNRIX1bTYONagApmfg3-1" value="" style="rounded=1;absoluteArcSize=1;html=1;arcSize=10;" vertex="1" parent="1">
          <mxGeometry x="40" y="40" width="760" height="720" as="geometry" />
        </mxCell>
        <mxCell id="JNNRIX1bTYONagApmfg3-2" value="&lt;div align=&quot;center&quot;&gt;&lt;b&gt;&lt;font style=&quot;font-size: 17px;&quot;&gt;Polygon Wars&lt;/font&gt;&lt;/b&gt;&lt;br&gt;&lt;/div&gt;" style="html=1;shape=mxgraph.er.anchor;whiteSpace=wrap;" vertex="1" parent="JNNRIX1bTYONagApmfg3-1">
          <mxGeometry width="760" height="120" as="geometry" />
        </mxCell>
        <mxCell id="JNNRIX1bTYONagApmfg3-3" value="&lt;div&gt;&lt;b&gt;&lt;font style=&quot;font-size: 20px;&quot;&gt;game&lt;/font&gt;&lt;/b&gt;&lt;/div&gt;&lt;div&gt;&lt;br&gt;&lt;/div&gt;&lt;div&gt;&lt;font style=&quot;font-size: 16px;&quot;&gt;Game State and Update Logic&lt;/font&gt;&lt;/div&gt;&lt;div&gt;&lt;br&gt;&lt;/div&gt;&lt;div&gt;&lt;br&gt;&lt;/div&gt;&lt;div&gt;&lt;br&gt;&lt;/div&gt;&lt;div&gt;&lt;br&gt;&lt;/div&gt;&lt;div&gt;&lt;br&gt;&lt;/div&gt;&lt;div&gt;&lt;br&gt;&lt;/div&gt;&lt;div&gt;&lt;br&gt;&lt;/div&gt;&lt;div&gt;&lt;br&gt;&lt;/div&gt;&lt;div&gt;&lt;br&gt;&lt;/div&gt;&lt;div&gt;&lt;br&gt;&lt;/div&gt;&lt;div&gt;&lt;br&gt;&lt;/div&gt;&lt;div&gt;&lt;br&gt;&lt;/div&gt;" style="rounded=1;absoluteArcSize=1;html=1;arcSize=10;whiteSpace=wrap;points=[];strokeColor=#6c8ebf;fillColor=#dae8fc;" vertex="1" parent="JNNRIX1bTYONagApmfg3-1">
          <mxGeometry x="20" y="120" width="342" height="270" as="geometry" />
        </mxCell>
        <mxCell id="JNNRIX1bTYONagApmfg3-6" value="&lt;div&gt;&lt;b&gt;&lt;font style=&quot;font-size: 20px;&quot;&gt;inputs&lt;/font&gt;&lt;/b&gt;&lt;/div&gt;&lt;div&gt;&lt;br&gt;&lt;/div&gt;&lt;font style=&quot;font-size: 16px;&quot;&gt;Keyboard and Mouse Event handling&lt;/font&gt;" style="rounded=1;absoluteArcSize=1;html=1;arcSize=10;whiteSpace=wrap;points=[];strokeColor=#d79b00;fillColor=#ffe6cc;" vertex="1" parent="JNNRIX1bTYONagApmfg3-1">
          <mxGeometry x="20" y="450" width="342" height="160" as="geometry" />
        </mxCell>
        <mxCell id="JNNRIX1bTYONagApmfg3-5" value="&lt;div&gt;&lt;b&gt;&lt;font style=&quot;font-size: 20px;&quot;&gt;utils&lt;/font&gt;&lt;/b&gt;&lt;/div&gt;&lt;div&gt;&lt;br&gt;&lt;/div&gt;&lt;div style=&quot;font-size: 16px;&quot;&gt;Utilities like JSON management, 2D Transformations, ...&lt;br&gt;&lt;/div&gt;" style="rounded=1;absoluteArcSize=1;html=1;arcSize=10;whiteSpace=wrap;points=[];strokeColor=#9673a6;fillColor=#e1d5e7;" vertex="1" parent="JNNRIX1bTYONagApmfg3-1">
          <mxGeometry x="400" y="450" width="342" height="160" as="geometry" />
        </mxCell>
        <mxCell id="JNNRIX1bTYONagApmfg3-4" value="&lt;div&gt;&lt;b&gt;&lt;font style=&quot;font-size: 20px;&quot;&gt;ui&lt;/font&gt;&lt;/b&gt;&lt;/div&gt;&lt;div&gt;&lt;br&gt;&lt;/div&gt;&lt;div&gt;&lt;font style=&quot;font-size: 16px;&quot;&gt;Menu Screens, User Interface&lt;/font&gt;&lt;br&gt;&lt;/div&gt;" style="rounded=1;absoluteArcSize=1;html=1;arcSize=10;whiteSpace=wrap;points=[];strokeColor=#82b366;fillColor=#d5e8d4;" vertex="1" parent="JNNRIX1bTYONagApmfg3-1">
          <mxGeometry x="390" y="120" width="342" height="160" as="geometry" />
        </mxCell>
        <mxCell id="JNNRIX1bTYONagApmfg3-7" value="&lt;div&gt;&lt;b&gt;&lt;font style=&quot;font-size: 20px;&quot;&gt;enemies&lt;/font&gt;&lt;/b&gt;&lt;/div&gt;&lt;div&gt;&lt;br&gt;&lt;/div&gt;&lt;font style=&quot;font-size: 16px;&quot;&gt;Enemy behaviors and types&lt;/font&gt;" style="rounded=1;absoluteArcSize=1;html=1;arcSize=10;whiteSpace=wrap;points=[];strokeColor=#001DBC;fillColor=#0050ef;fontColor=#ffffff;" vertex="1" parent="JNNRIX1bTYONagApmfg3-1">
          <mxGeometry x="55" y="220" width="272" height="130" as="geometry" />
        </mxCell>
      </root>
    </mxGraphModel>
  </diagram>
</mxfile>
